<svg width="144" height="116" viewBox="0 0 144 116" fill="none" xmlns="http://www.w3.org/2000/svg">
<path d="M143.211 0.164683C138.256 0.134683 97.5008 0.0996805 93.5842 0.0996805C76.7875 0.0880139 59.9958 0.0880102 43.2042 0.106344C34.8108 0.11301 26.4125 0.118019 18.0208 0.136352C13.8192 0.143019 9.6225 0.148047 5.42583 0.154714C4.18083 0.161381 1.09917 -0.443611 0.262501 0.694722C-0.685832 1.97472 1.19251 3.97803 1.82751 4.98636C4.23917 8.85136 6.6575 12.7213 9.07584 16.5863C9.71584 17.6113 10.4092 18.6847 11.4942 19.218C12.3708 19.6447 13.3842 19.6564 14.3625 19.663C29.1975 19.7347 44.0342 19.7997 58.8625 19.8697C51.4475 31.7297 44.0325 43.5897 36.6125 55.4497C36.0792 56.3097 35.5225 57.2463 35.6108 58.253C35.6825 58.9997 36.0975 59.6581 36.4992 60.2914C40.0792 65.8814 43.6642 71.463 47.2442 77.053C50.7892 71.583 54.3275 66.1064 57.8658 60.6347C58.4292 59.763 59.0392 58.8513 59.9825 58.418C60.7242 58.0747 61.5658 58.0797 62.3825 58.0914C68.9858 58.1747 75.5942 58.258 82.1958 58.3397C81.7392 58.3397 79.8658 61.8847 79.5225 62.4114C78.5558 63.9047 77.5958 65.4097 76.6475 66.9214C74.7575 69.9447 72.9008 72.9964 71.0825 76.0614C67.4792 82.1364 64.0408 88.313 60.7875 94.583C60.4258 95.288 60.0525 96.023 60.0525 96.818C60.0458 97.7897 60.5975 98.6614 61.1308 99.4731C64.5925 104.766 68.0542 110.058 71.5142 115.351C87.7725 89.788 103.936 64.1597 119.991 38.4664C103.904 38.4781 87.8192 38.4897 71.7275 38.508C74.7558 33.6364 77.7842 28.7697 80.8075 23.8981C81.6492 22.5464 82.5558 21.1297 83.9608 20.3647C85.3175 19.6297 86.9308 19.618 88.4775 19.623C101.724 19.6697 114.971 19.7114 128.212 19.7597C129.332 19.7597 130.506 19.753 131.491 19.2264C132.499 18.6864 133.156 17.6914 133.772 16.7314C137.246 11.308 140.552 5.78468 143.701 0.164683C143.701 0.164683 143.531 0.164683 143.211 0.164683ZM58.3708 19.5697C58.5075 19.6347 58.6375 19.723 58.7625 19.8547C58.6308 19.743 58.5008 19.648 58.3708 19.5697ZM135.131 1.18972C135.084 1.17805 135.036 1.17138 134.989 1.15971C134.971 1.13638 134.959 1.11304 134.954 1.08804C135.012 1.11971 135.072 1.15472 135.131 1.18972C135.154 1.19638 135.178 1.20137 135.208 1.20137C135.226 1.23137 135.249 1.25468 135.268 1.27802C135.221 1.24968 135.179 1.21972 135.131 1.18972Z" fill="url(#paint0_linear_2002_2)"/>
<defs>
<linearGradient id="paint0_linear_2002_2" x1="0" y1="57.6757" x2="143.701" y2="57.6757" gradientUnits="userSpaceOnUse">
<stop stop-color="#3674B5"/>
<stop offset="1" stop-color="#578FCA"/>
</linearGradient>
</defs>
</svg>
